<svg width="13" height="13" viewBox="0 0 13 13" fill="none" xmlns="http://www.w3.org/2000/svg">
<path d="M12.4328 12.7735C12.2816 12.9245 12.1152 13 11.9337 13C11.7522 13 11.5858 12.9245 11.4346 12.7735L6.46597 7.81359L1.54276 12.7282C1.39151 12.8792 1.22513 12.9547 1.04363 12.9547C0.862129 12.9547 0.695753 12.8792 0.544503 12.7282L0.226876 12.4111C0.0756251 12.2602 -2.81726e-07 12.0941 0 11.9129C-1.69036e-07 11.7317 0.0756251 11.5656 0.226876 11.4146L5.15009 6.5L0.317626 1.67596C0.166376 1.52497 0.0907503 1.35888 0.0907499 1.1777C0.0907499 0.996515 0.166375 0.830429 0.317626 0.679442L0.65794 0.339721C0.809191 0.188733 0.975567 0.11324 1.15707 0.11324C1.33857 0.11324 1.50495 0.188734 1.6562 0.339721L6.48866 5.16376L11.4346 0.22648C11.5858 0.0754929 11.7522 -4.49975e-07 11.9337 0C12.1152 0 12.2816 0.0754938 12.4328 0.226481L12.7504 0.543554C12.9017 0.694542 12.9773 0.860627 12.9773 1.04181C12.9773 1.223 12.9017 1.38908 12.7504 1.54007L7.80454 6.47735L12.7731 11.4373C12.9244 11.5883 13 11.7544 13 11.9355C13 12.1167 12.9244 12.2828 12.7731 12.4338L12.4328 12.7735Z" fill="#828282"/>
</svg>
