<svg width="35" height="35" viewBox="0 0 35 35" fill="none" xmlns="http://www.w3.org/2000/svg">
<circle cx="18" cy="18" r="16" fill="#EFF6FF"/>
<path d="M22.7596 13.6881C23.394 13.6881 23.9083 13.1738 23.9083 12.5393C23.9083 11.9049 23.394 11.3906 22.7596 11.3906C22.1251 11.3906 21.6108 11.9049 21.6108 12.5393C21.6108 13.1738 22.1251 13.6881 22.7596 13.6881Z" fill="url(#paint0_linear_3230_1609)"/>
<path d="M17.6494 12.7344C16.6772 12.7344 15.7269 13.0227 14.9185 13.5628C14.1101 14.1029 13.4801 14.8706 13.1081 15.7688C12.736 16.667 12.6387 17.6554 12.8283 18.6089C13.018 19.5624 13.4862 20.4383 14.1736 21.1258C14.8611 21.8132 15.7369 22.2814 16.6905 22.471C17.644 22.6607 18.6323 22.5634 19.5305 22.1913C20.4287 21.8193 21.1965 21.1892 21.7366 20.3809C22.2767 19.5725 22.565 18.6221 22.565 17.6499C22.565 16.3462 22.0471 15.096 21.1253 14.1741C20.2034 13.2523 18.9531 12.7344 17.6494 12.7344ZM17.6494 20.8408C17.0183 20.8408 16.4014 20.6537 15.8767 20.3031C15.3519 19.9524 14.943 19.4541 14.7015 18.871C14.4599 18.288 14.3968 17.6464 14.5199 17.0274C14.643 16.4084 14.9469 15.8399 15.3932 15.3936C15.8394 14.9474 16.408 14.6435 17.0269 14.5204C17.6459 14.3972 18.2875 14.4604 18.8705 14.7019C19.4536 14.9434 19.9519 15.3524 20.3026 15.8772C20.6532 16.4019 20.8403 17.0188 20.8403 17.6499C20.8403 18.4962 20.5041 19.3078 19.9057 19.9062C19.3073 20.5046 18.4957 20.8408 17.6494 20.8408Z" fill="url(#paint1_linear_3230_1609)"/>
<path d="M17.6498 9.80182C20.2057 9.80182 20.5088 9.81139 21.5179 9.85766C22.1249 9.86487 22.7261 9.97631 23.2953 10.1871C23.7082 10.3464 24.0832 10.5904 24.3962 10.9034C24.7092 11.2163 24.9532 11.5914 25.1125 12.0043C25.3233 12.5735 25.4347 13.1747 25.4419 13.7816C25.4882 14.7908 25.4978 15.0939 25.4978 17.6506C25.4978 20.2073 25.4882 20.5088 25.4419 21.5179C25.4347 22.1249 25.3233 22.7261 25.1125 23.2953C24.9532 23.7082 24.7092 24.0832 24.3962 24.3962C24.0832 24.7092 23.7082 24.9532 23.2953 25.1125C22.7261 25.3233 22.1249 25.4347 21.5179 25.4419C20.5088 25.4882 20.2057 25.4978 17.6498 25.4978C15.0939 25.4978 14.7908 25.4882 13.7816 25.4419C13.1747 25.4347 12.5735 25.3233 12.0043 25.1125C11.5914 24.9532 11.2163 24.7092 10.9034 24.3962C10.5904 24.0832 10.3464 23.7082 10.1871 23.2953C9.97631 22.7261 9.86487 22.1249 9.85766 21.5179C9.81139 20.5088 9.80182 20.2057 9.80182 17.6498C9.80182 15.0939 9.81139 14.7908 9.85766 13.7816C9.86487 13.1747 9.97631 12.5735 10.1871 12.0043C10.3464 11.5914 10.5904 11.2163 10.9034 10.9034C11.2163 10.5904 11.5914 10.3464 12.0043 10.1871C12.5735 9.97631 13.1747 9.86487 13.7816 9.85766C14.7908 9.81139 15.0939 9.80182 17.6498 9.80182V9.80182ZM17.6498 8.07715C15.05 8.07715 14.7238 8.08832 13.7027 8.13458C12.9088 8.15062 12.1233 8.30112 11.3797 8.57971C10.7437 8.82565 10.1661 9.20176 9.68393 9.68393C9.20176 10.1661 8.82565 10.7437 8.57971 11.3797C8.30104 12.1236 8.15053 12.9093 8.13458 13.7035C8.08832 14.7246 8.07715 15.0492 8.07715 17.6498C8.07715 20.2504 8.08832 20.5758 8.13458 21.5969C8.15062 22.3908 8.30112 23.1763 8.57971 23.9199C8.82565 24.5559 9.20176 25.1335 9.68393 25.6157C10.1661 26.0978 10.7437 26.4739 11.3797 26.7199C12.1236 26.9986 12.9093 27.1491 13.7035 27.165C14.7246 27.2113 15.05 27.2224 17.6498 27.2224C20.2496 27.2224 20.5758 27.2113 21.5969 27.165C22.3911 27.1491 23.1768 26.9986 23.9207 26.7199C24.5567 26.4739 25.1343 26.0978 25.6165 25.6157C26.0986 25.1335 26.4747 24.5559 26.7207 23.9199C26.9991 23.176 27.1493 22.3903 27.165 21.5961C27.2113 20.575 27.2224 20.2504 27.2224 17.6498C27.2224 15.0492 27.2113 14.7238 27.165 13.7027C27.149 12.9088 26.9985 12.1233 26.7199 11.3797C26.4739 10.7437 26.0978 10.1661 25.6157 9.68393C25.1335 9.20176 24.5559 8.82565 23.9199 8.57971C23.176 8.30131 22.3903 8.15107 21.5961 8.13538C20.575 8.08752 20.2504 8.07715 17.6498 8.07715Z" fill="url(#paint2_linear_3230_1609)"/>
<defs>
<linearGradient id="paint0_linear_3230_1609" x1="23.9742" y1="11.0643" x2="20.6911" y2="11.7227" gradientUnits="userSpaceOnUse">
<stop stop-color="#934DFF"/>
</linearGradient>
<linearGradient id="paint1_linear_3230_1609" x1="22.8473" y1="11.3379" x2="8.79821" y2="14.1554" gradientUnits="userSpaceOnUse">
<stop stop-color="#934DFF"/>
</linearGradient>
<linearGradient id="paint2_linear_3230_1609" x1="27.7722" y1="5.35764" x2="0.412728" y2="10.8444" gradientUnits="userSpaceOnUse">
<stop stop-color="#934DFF"/>
</linearGradient>
</defs>
</svg>
