<svg width="48" height="50" viewBox="0 0 48 50" fill="none" xmlns="http://www.w3.org/2000/svg">
<path d="M25.1198 49.8287C15.5172 49.3798 4.24563 43.4458 1.14726 33.8723C-0.709616 28.1345 -0.372611 21.6772 2.59946 15.861C6.63917 7.95479 14.7062 2.99787 23.5862 2.9838L24.8569 0L29.7069 9.91585L24.8569 19.8129L23.5815 16.8023C19.9408 16.8281 16.558 18.9031 14.9005 22.1472C13.671 24.5531 13.5377 27.2424 14.3156 29.6457C15.5406 33.4311 21.1672 35.7486 24.8569 36.166L19.494 43.3992L25.1198 49.8287Z" fill="url(#paint0_linear_3230_1602)"/>
<path d="M27.8837 3.14941C36.5233 4.49978 43.9196 10.5856 46.7202 19.2385C48.5774 24.9767 48.24 31.4337 45.2683 37.2499C41.6202 44.3893 34.6305 49.1636 26.6915 50.0005L21.1011 43.3996L26.6242 36.0134C29.3728 35.3217 31.6745 33.4932 32.9669 30.9637C34.196 28.5578 34.33 25.8684 33.5518 23.4652C32.5887 20.4887 30.2934 18.247 27.4868 17.2567L31.1392 9.80442L27.8837 3.14941Z" fill="#4D92EB"/>
<defs>
<linearGradient id="paint0_linear_3230_1602" x1="29.7069" y1="-22.1738" x2="-6.56765" y2="-14.3538" gradientUnits="userSpaceOnUse">
<stop offset="0.045703" stop-color="#B93CE8"/>
<stop offset="1" stop-color="#FF9AEA"/>
</linearGradient>
</defs>
</svg>
