<svg width="492" height="306" viewBox="0 0 492 306" fill="none" xmlns="http://www.w3.org/2000/svg">
<path d="M62.2093 182.348L53.8925 182.488C51.1139 182.547 48.3207 182.535 45.5345 182.557L44.9807 182.562L44.9773 182L44.9105 168.03L44.9077 167.403L45.5345 167.405L62.0653 167.484C67.575 167.49 73.0858 167.624 78.596 167.689L78.94 167.692L78.9372 168.03C78.9135 170.399 78.8296 172.757 78.7729 175.087L78.596 182L62.2093 182.348ZM78.419 174.94C78.3626 172.615 78.2786 170.316 78.2555 168.03L78.596 168.369C73.0858 168.433 67.575 168.567 62.0653 168.574L45.5345 168.653L46.158 168.03L46.0902 182L45.5345 181.443C48.2586 181.465 50.9746 181.453 53.7068 181.511L61.9208 181.652L78.596 182L78.419 174.94Z" fill="#E7E8E5"/>
<path d="M0 259.695L14.679 259.695H30.7893L60.617 260.178L122.243 260.114L245.495 259.994L368.748 260.114L430.374 260.177L492 260.352L430.374 260.527L368.748 260.59L245.495 260.709L122.243 260.59L60.617 260.526H30.7893H0V259.695Z" fill="#17282F"/>
<path d="M109.862 86.8325V92.9111L114.761 89.8718L109.862 86.8325Z" fill="white"/>
<path d="M118.557 89.9594C118.557 89.752 118.5 89.5701 118.419 89.4452C118.335 89.3251 118.239 89.2669 118.15 89.2706C118.06 89.2669 117.961 89.3251 117.875 89.4452C117.795 89.5701 117.736 89.752 117.736 89.9594C117.736 90.1644 117.795 90.3488 117.875 90.4713C117.961 90.5938 118.06 90.6495 118.15 90.6495C118.239 90.6495 118.335 90.5938 118.419 90.4713C118.5 90.3488 118.557 90.1644 118.557 89.9594ZM117.417 89.9594C117.419 89.6938 117.485 89.4549 117.612 89.2706C117.734 89.085 117.921 88.9492 118.15 88.9492C118.373 88.9492 118.562 89.085 118.684 89.2706C118.808 89.4549 118.877 89.6938 118.877 89.9594C118.877 90.2226 118.808 90.4652 118.684 90.6495C118.562 90.8315 118.373 90.9697 118.15 90.9697C117.921 90.9697 117.734 90.8315 117.612 90.6495C117.485 90.4652 117.419 90.2226 117.417 89.9594Z" fill="white"/>
<path d="M120.613 89.9594C120.613 89.752 120.555 89.5701 120.475 89.4452C120.391 89.3251 120.295 89.2669 120.206 89.2706C120.116 89.2669 120.017 89.3251 119.931 89.4452C119.851 89.5701 119.792 89.752 119.792 89.9594C119.792 90.1644 119.851 90.3488 119.931 90.4713C120.017 90.5938 120.116 90.6495 120.206 90.6495C120.295 90.6495 120.391 90.5938 120.475 90.4713C120.555 90.3488 120.613 90.1644 120.613 89.9594ZM119.473 89.9594C119.475 89.6938 119.541 89.4549 119.668 89.2706C119.79 89.085 119.977 88.9492 120.206 88.9492C120.429 88.9492 120.618 89.085 120.74 89.2706C120.864 89.4549 120.933 89.6938 120.933 89.9594C120.933 90.2226 120.864 90.4652 120.74 90.6495C120.618 90.8315 120.429 90.9697 120.206 90.9697C119.977 90.9697 119.79 90.8315 119.668 90.6495C119.541 90.4652 119.475 90.2226 119.473 89.9594Z" fill="white"/>
<path d="M121.806 90.5607C121.924 90.5607 122.023 90.6589 122.023 90.7778C122.023 90.8954 121.924 90.9912 121.806 90.9912C121.687 90.9912 121.592 90.8954 121.592 90.7778C121.592 90.6589 121.687 90.5607 121.806 90.5607ZM121.806 89.4121C121.924 89.4121 122.023 89.5104 122.023 89.6292C122.023 89.7469 121.924 89.8415 121.806 89.8415C121.687 89.8415 121.592 89.7469 121.592 89.6292C121.592 89.5104 121.687 89.4121 121.806 89.4121Z" fill="white"/>
<path d="M123.365 89.9594C123.365 89.752 123.307 89.5701 123.227 89.4452C123.142 89.3251 123.047 89.2669 122.958 89.2706C122.868 89.2669 122.769 89.3251 122.683 89.4452C122.602 89.5701 122.544 89.752 122.544 89.9594C122.544 90.1644 122.602 90.3488 122.683 90.4713C122.769 90.5938 122.868 90.6495 122.958 90.6495C123.047 90.6495 123.142 90.5938 123.227 90.4713C123.307 90.3488 123.365 90.1644 123.365 89.9594ZM122.225 89.9594C122.227 89.6938 122.293 89.4549 122.42 89.2706C122.542 89.085 122.729 88.9492 122.958 88.9492C123.18 88.9492 123.37 89.085 123.492 89.2706C123.616 89.4549 123.685 89.6938 123.685 89.9594C123.685 90.2226 123.616 90.4652 123.492 90.6495C123.37 90.8315 123.18 90.9697 122.958 90.9697C122.729 90.9697 122.542 90.8315 122.42 90.6495C122.293 90.4652 122.227 90.2226 122.225 89.9594Z" fill="white"/>
<path d="M125.421 89.9594C125.421 89.752 125.363 89.5701 125.282 89.4452C125.198 89.3251 125.102 89.2669 125.013 89.2706C124.923 89.2669 124.825 89.3251 124.738 89.4452C124.658 89.5701 124.6 89.752 124.6 89.9594C124.6 90.1644 124.658 90.3488 124.738 90.4713C124.825 90.5938 124.923 90.6495 125.013 90.6495C125.102 90.6495 125.198 90.5938 125.282 90.4713C125.363 90.3488 125.421 90.1644 125.421 89.9594ZM124.28 89.9594C124.283 89.6938 124.349 89.4549 124.476 89.2706C124.598 89.085 124.785 88.9492 125.013 88.9492C125.236 88.9492 125.425 89.085 125.548 89.2706C125.672 89.4549 125.74 89.6938 125.74 89.9594C125.74 90.2226 125.672 90.4652 125.548 90.6495C125.425 90.8315 125.236 90.9697 125.013 90.9697C124.785 90.9697 124.598 90.8315 124.476 90.6495C124.349 90.4652 124.283 90.2226 124.28 89.9594Z" fill="white"/>
<path d="M102.222 273.732V271.339L230.139 268.492L281.988 290.081V292.474L155.452 305.483L102.222 273.732Z" fill="url(#paint0_linear_394_561)"/>
<path d="M155.452 305.483L102.222 273.732V271.339L230.139 268.492L281.988 290.081V292.474L155.452 305.483Z" fill="#29246A"/>
<path d="M102.222 271.339L230.139 263.671L281.988 290.08L155.452 303.088L102.222 271.339Z" fill="url(#paint1_linear_394_561)"/>
<path d="M109.912 271.815L158.628 300.967L277.2 288.832L227.028 263.478C227.028 263.478 192.679 262.669 191.033 262.815C189.387 262.962 173.531 265.373 173.531 265.373C173.531 265.373 152.132 265.451 150.64 265.606C149.148 265.762 109.912 271.815 109.912 271.815Z" fill="#E7E8E5"/>
<path d="M173.53 265.373L179.472 268.955L185.365 272.572L197.072 279.86L208.673 287.221L214.434 290.929L220.145 294.671L214.203 291.088L208.311 287.47L196.603 280.183L185.005 272.821L179.244 269.113L173.53 265.373Z" fill="#BEBFBD"/>
<path d="M179.658 283.365C181.151 283.217 182.655 283.119 184.16 283.026C185.665 282.93 187.175 282.869 188.685 282.808C190.197 282.756 191.709 282.707 193.224 282.691C194.738 282.67 196.253 282.658 197.769 282.696C196.266 282.844 194.762 282.943 193.258 283.034C191.754 283.13 190.248 283.192 188.741 283.254C187.233 283.304 185.724 283.353 184.211 283.369C182.697 283.388 181.182 283.4 179.658 283.365Z" fill="#BEBFBD"/>
<path d="M152.144 290.213C156.14 289.464 160.154 288.759 164.172 288.069C168.189 287.368 172.225 286.722 176.257 286.061C178.274 285.73 180.295 285.427 182.338 285.14C182.868 285.065 183.408 285.026 183.923 285.011L185.48 284.948L188.594 284.842C192.745 284.733 196.897 284.632 201.053 284.596C196.912 284.837 192.768 285.017 188.625 285.211L185.519 285.346C184.492 285.408 183.426 285.403 182.468 285.55C180.45 285.84 178.435 286.182 176.413 286.488L164.294 288.387C160.25 289.013 156.204 289.632 152.144 290.213Z" fill="#BEBFBD"/>
<path d="M155.547 292.288C159.423 291.539 163.316 290.829 167.215 290.137C171.109 289.429 175.027 288.783 178.938 288.117C180.895 287.784 182.856 287.471 184.83 287.175C185.328 287.103 185.812 287.026 186.342 286.967C186.862 286.92 187.365 286.91 187.871 286.885L190.898 286.774C194.936 286.664 198.972 286.57 203.013 286.544C198.989 286.783 194.959 286.962 190.931 287.155L187.912 287.289C187.412 287.317 186.904 287.331 186.425 287.381C185.961 287.435 185.463 287.516 184.975 287.59L179.099 288.538C175.174 289.163 171.267 289.836 167.338 290.449C163.414 291.079 159.487 291.7 155.547 292.288Z" fill="#BEBFBD"/>
<path d="M158.991 294.076C162.917 293.427 166.855 292.818 170.8 292.224C174.74 291.615 178.701 291.072 182.654 290.504C184.642 290.229 186.591 289.943 188.639 289.737L194.672 289.311C198.7 289.056 202.728 288.795 206.765 288.601C202.763 289.005 198.75 289.344 194.738 289.687L188.711 290.159C186.764 290.369 184.765 290.677 182.789 290.928C178.824 291.456 174.874 292.028 170.904 292.541C166.939 293.069 162.97 293.589 158.991 294.076Z" fill="#BEBFBD"/>
<path d="M217.059 288.201C220.732 287.486 224.439 286.857 228.174 286.304C229.109 286.167 230.041 286.022 230.985 285.903C231.461 285.847 231.925 285.789 232.431 285.751L233.861 285.661L239.573 285.311C243.382 285.068 247.195 284.87 251.004 284.649C254.815 284.431 258.629 284.235 262.443 284.05C258.645 284.349 254.845 284.64 251.042 284.907C247.237 285.173 243.436 285.459 239.629 285.702L233.919 286.08L232.494 286.174C232.051 286.213 231.577 286.278 231.114 286.339L228.31 286.713C224.573 287.24 220.83 287.757 217.059 288.201Z" fill="#BEBFBD"/>
<path d="M213.853 285.892C217.461 285.331 221.089 284.837 224.737 284.416C226.565 284.204 228.373 283.968 230.249 283.856L235.775 283.492C239.457 283.241 243.144 283.027 246.83 282.8C250.515 282.571 254.205 282.37 257.897 282.176C254.224 282.485 250.549 282.788 246.87 283.065C243.191 283.341 239.514 283.632 235.831 283.886L230.309 284.278C229.389 284.334 228.503 284.442 227.583 284.537L224.842 284.822C221.193 285.224 217.532 285.585 213.853 285.892Z" fill="#BEBFBD"/>
<path d="M210.724 283.804C214.312 283.262 217.915 282.774 221.538 282.361C223.353 282.155 225.147 281.923 226.996 281.776L232.505 281.512C236.171 281.335 239.843 281.189 243.513 281.038C247.181 280.881 250.854 280.752 254.526 280.632C250.867 280.871 247.208 281.103 243.545 281.306C239.884 281.514 236.222 281.729 232.557 281.911C230.73 282.009 228.884 282.092 227.072 282.203L221.641 282.761C218.016 283.154 214.376 283.502 210.724 283.804Z" fill="#BEBFBD"/>
<path d="M207.999 282.215C211.508 281.43 215.075 280.793 218.683 280.232C219.135 280.16 219.589 280.098 220.053 280.047C220.52 279.987 221.013 279.966 221.47 279.952L224.241 279.863L229.78 279.704C237.167 279.517 244.555 279.351 251.947 279.25C244.569 279.569 237.188 279.83 229.808 280.09L224.271 280.273L221.506 280.374C220.587 280.38 219.748 280.547 218.827 280.661C215.226 281.174 211.64 281.767 207.999 282.215Z" fill="#BEBFBD"/>
<path d="M205.051 280.316C208.559 279.533 212.126 278.895 215.734 278.334C216.187 278.263 216.639 278.202 217.105 278.15C217.571 278.089 218.064 278.069 218.522 278.055L221.293 277.966L226.832 277.807C234.218 277.619 241.605 277.455 248.997 277.353C241.62 277.671 234.238 277.933 226.858 278.192L221.323 278.375L218.558 278.475C217.637 278.482 216.798 278.649 215.879 278.764C212.278 279.277 208.692 279.87 205.051 280.316Z" fill="#BEBFBD"/>
<path d="M202.101 278.42C205.61 277.635 209.177 276.998 212.785 276.437C213.237 276.365 213.691 276.305 214.155 276.252C214.622 276.193 215.115 276.171 215.572 276.157L218.343 276.068L223.882 275.909C231.269 275.722 238.657 275.556 246.048 275.454C238.671 275.776 231.29 276.036 223.909 276.295L218.373 276.479L215.609 276.578C214.689 276.585 213.848 276.752 212.929 276.866C209.328 277.38 205.742 277.972 202.101 278.42Z" fill="#BEBFBD"/>
<path d="M199.151 276.521C202.661 275.738 206.227 275.1 209.835 274.539C210.287 274.47 210.741 274.408 211.207 274.356C211.672 274.295 212.165 274.275 212.622 274.26L215.393 274.172L220.934 274.013C228.32 273.825 235.707 273.66 243.099 273.558C235.721 273.877 228.34 274.139 220.96 274.397L215.425 274.582L212.66 274.683C211.739 274.687 210.9 274.855 209.981 274.97C206.38 275.484 202.792 276.075 199.151 276.521Z" fill="#BEBFBD"/>
<path d="M195.159 274.819C198.667 274.035 202.234 273.398 205.842 272.835C206.295 272.765 206.748 272.704 207.213 272.653C207.68 272.591 208.172 272.571 208.629 272.556L211.401 272.468L216.94 272.309C224.327 272.121 231.714 271.956 239.106 271.854C231.729 272.174 224.348 272.435 216.966 272.693L211.431 272.877L208.667 272.978C207.747 272.984 206.906 273.152 205.987 273.267C202.386 273.778 198.8 274.373 195.159 274.819Z" fill="#BEBFBD"/>
<path d="M191.279 273.14C194.789 272.355 198.354 271.718 201.963 271.156C202.415 271.086 202.868 271.024 203.333 270.974C203.8 270.912 204.292 270.892 204.75 270.877L207.521 270.789L213.061 270.629C220.447 270.441 227.834 270.276 235.225 270.174C227.849 270.495 220.468 270.755 213.088 271.013L207.551 271.198L204.787 271.299C203.867 271.305 203.027 271.472 202.107 271.587C198.507 272.1 194.92 272.692 191.279 273.14Z" fill="#BEBFBD"/>
<path d="M188.329 271.244C191.833 270.461 195.394 269.824 198.996 269.264C199.447 269.192 199.899 269.13 200.364 269.079C200.826 269.017 201.322 268.997 201.782 268.986L204.552 268.925L210.086 268.828C217.465 268.729 224.843 268.654 232.225 268.643C224.852 268.873 217.477 269.043 210.103 269.215L204.572 269.335L201.811 269.408C200.902 269.407 200.056 269.581 199.14 269.693C195.545 270.206 191.965 270.796 188.329 271.244Z" fill="#BEBFBD"/>
<path d="M185.381 269.345C188.879 268.564 192.433 267.927 196.029 267.366C196.481 267.297 196.932 267.234 197.395 267.183C197.853 267.12 198.352 267.1 198.816 267.093L201.584 267.063L207.112 267.039C214.48 267.037 221.848 267.063 229.216 267.155C221.85 267.283 214.482 267.351 207.117 267.425L201.593 267.474L198.837 267.515C197.94 267.506 197.086 267.688 196.174 267.797C192.585 268.31 189.01 268.899 185.381 269.345Z" fill="#BEBFBD"/>
<path d="M182.431 267.448C185.923 266.668 189.47 266.034 193.059 265.474C193.509 265.403 193.959 265.339 194.421 265.289C194.875 265.225 195.376 265.203 195.847 265.203L198.613 265.226L204.128 265.318C207.805 265.387 211.478 265.492 215.152 265.586C218.825 265.686 222.499 265.799 226.171 265.932C218.817 265.89 211.465 265.79 204.114 265.703L198.603 265.638L195.853 265.627C194.975 265.606 194.109 265.798 193.203 265.903C189.622 266.415 186.054 267.003 182.431 267.448Z" fill="#BEBFBD"/>
<path d="M162.325 296.629C166.319 296.044 170.324 295.502 174.333 294.974C178.34 294.435 182.362 293.95 186.379 293.445C188.395 293.196 190.389 292.964 192.442 292.755L198.525 292.25C202.585 291.937 206.645 291.623 210.718 291.369C206.685 291.823 202.639 292.218 198.592 292.613L192.517 293.171C190.53 293.379 188.508 293.652 186.499 293.878L174.425 295.299C170.398 295.76 166.368 296.214 162.325 296.629Z" fill="#BEBFBD"/>
<path d="M219.332 290.369C223.357 289.84 227.393 289.353 231.433 288.881C235.469 288.397 239.52 287.971 243.566 287.52C245.596 287.298 247.605 287.094 249.67 286.914L255.79 286.492C259.871 286.235 263.954 285.976 268.048 285.78C263.989 286.178 259.916 286.516 255.845 286.857L249.732 287.33C247.732 287.511 245.695 287.755 243.673 287.954L231.514 289.206C227.459 289.613 223.401 290.011 219.332 290.369Z" fill="#BEBFBD"/>
<path d="M102.2 121.319C111.33 162.43 130.49 211.767 138.759 219.812C149.217 229.988 218.787 249.011 222.261 249.411C230.865 250.341 247.813 192.923 238.657 191.533C224.715 189.416 174.738 181.861 171.719 178.717C168.587 175.429 147.368 148.269 125.565 117.596C110.518 96.3982 96.5356 95.8112 102.2 121.319Z" fill="url(#paint2_linear_394_561)"/>
<path d="M215.464 247.237C216.416 247.728 229.924 254.645 238.292 257.136C244.533 258.993 262.644 263.86 265.371 257.192C267.238 252.646 256.925 248.53 249.697 245.457C245.89 243.839 241.211 239.806 242.356 237.359C244.354 233.081 254.155 237.463 260.594 241.267C273.045 248.621 289.605 261.818 297.288 255.531C300.189 253.153 296.869 248.762 291.996 244.447C299.917 249.493 308.375 253.647 311.703 251.134C313.614 249.703 313.717 247.72 312.674 245.448C315.126 246.264 317.298 246.124 318.824 244.534C321.43 241.846 320.198 237.842 317.398 233.725C318.306 233.637 319.125 233.181 319.758 232.198C325.297 223.887 298.053 199.711 288.587 197.398C260.74 190.566 231.336 191.588 231.336 191.588C220.316 200.265 215.442 247.218 215.464 247.237Z" fill="url(#paint3_linear_394_561)"/>
<path d="M256.669 221.852C263.232 222.929 269.68 225.432 275.223 229.149C282.262 233.866 286.913 239.363 292.807 244.909C292.963 245.054 292.742 245.299 292.585 245.154C289.776 242.518 278.132 232.601 275.121 230.345C269.605 226.211 263.429 223.29 256.644 221.966L256.669 221.852Z" fill="#17282F"/>
<path d="M261.952 210.053C269.269 212.112 276.767 214.193 283.548 217.71C290.966 221.558 296.749 227.787 302.437 233.782C305.851 237.383 309.193 241.053 312.439 244.807C312.575 244.964 312.364 245.209 312.217 245.052C306.448 238.858 300.493 232.832 294.356 227.004C288.582 221.522 282.129 217.31 274.703 214.419C270.52 212.79 266.219 211.484 261.924 210.184L261.952 210.053Z" fill="#17282F"/>
<path d="M269.86 199.76C276.972 201.273 283.178 202.571 289.458 206.432C297.772 211.546 305.772 220.118 308.578 223.157C311.678 226.514 314.663 229.971 317.595 233.475C317.715 233.617 317.469 233.829 317.347 233.688C310.642 226.024 303.411 218.742 295.771 212.01C292.12 208.793 288.148 205.986 283.678 204.023C279.259 202.081 274.517 200.965 269.849 199.808L269.86 199.76Z" fill="#17282F"/>
<path d="M227.616 183.674L205.69 251.426C205.69 251.426 147.775 234.441 137.253 222.926C126.729 211.41 107.582 152.21 102.031 123.545C96.4782 94.88 110.948 95.6902 124.12 113.834C137.293 131.978 170.096 175.958 171.941 176.922C173.785 177.886 227.616 183.674 227.616 183.674Z" fill="url(#paint4_linear_394_561)"/>
<path d="M199.32 220.402C201.803 212.838 204.347 205.292 206.548 197.632C207.799 193.28 209.074 188.933 210.283 184.569C210.329 184.403 210.052 184.301 209.992 184.463C207.199 191.953 204.414 199.473 201.965 207.093C199.529 214.676 197.028 222.236 194.69 229.854C193.36 234.184 192.167 238.539 191.102 242.949L191.256 243.005C194.303 235.604 196.82 228.019 199.32 220.402Z" fill="#17282F"/>
<path d="M176.488 241.881C175.632 241.574 174.777 241.269 173.922 240.962C171.255 239.988 168.56 238.975 165.901 237.937C169.41 239.304 172.991 240.628 176.487 241.878C176.487 241.879 176.487 241.88 176.488 241.881ZM159.268 235.264C158.824 235.082 158.385 234.896 157.952 234.709C158.388 234.894 158.826 235.078 159.268 235.264ZM157.503 234.517C156.699 234.176 155.897 233.827 155.119 233.477C155.902 233.826 156.697 234.171 157.503 234.517ZM155.013 233.43C154.562 233.237 154.13 233.033 153.69 232.841C153.53 232.764 153.369 232.699 153.208 232.624C152.919 232.489 152.632 232.355 152.347 232.22C153.216 232.624 154.106 233.027 155.013 233.43ZM149.956 231.08C149.283 230.752 148.625 230.425 147.982 230.096C147.982 230.092 147.984 230.098 147.982 230.094C148.623 230.421 149.281 230.751 149.956 231.08Z" fill="#E0E1DE"/>
<path d="M176.487 241.877C172.991 240.628 169.411 239.303 165.901 237.936C163.75 237.098 161.624 236.244 159.556 235.38C159.459 235.341 159.364 235.302 159.268 235.263C158.826 235.078 158.388 234.893 157.952 234.708C157.898 234.685 157.846 234.662 157.793 234.639C157.696 234.598 157.6 234.557 157.503 234.516C156.697 234.171 155.902 233.825 155.119 233.477C155.092 233.465 155.064 233.453 155.036 233.44C155.028 233.437 155.02 233.433 155.013 233.429C154.106 233.027 153.216 232.623 152.347 232.219C152.172 232.135 151.996 232.052 151.82 231.969C151.187 231.672 150.565 231.376 149.956 231.079C149.281 230.75 148.623 230.421 147.982 230.093C144.696 203.504 138.353 164.558 129.366 135.822C147.985 177.842 169.003 226.91 176.487 241.877Z" fill="#29246A"/>
<path d="M150.643 260.202L8.36966 259.809C8.70839 256.999 48.3314 123.838 75.6583 101.123C87.3051 91.4409 108.718 98.5444 111.444 100.77C137.872 122.35 152.636 258.56 150.643 260.202Z" fill="url(#paint5_linear_394_561)"/>
<path d="M65.3356 118.314C34.1837 156.205 -1.96727 231.552 7.42449 245.652C17.8855 261.357 60.8642 209.994 60.4223 207.163C60.0883 205.024 72.8621 159.063 82.6784 125.588C92.4861 92.1443 73.0393 108.944 65.3356 118.314Z" fill="url(#paint6_linear_394_561)"/>
<path d="M60.7471 207.188C61.7756 202.305 79.3264 141.634 84.1838 122.511C89.0403 103.389 82.4598 98.2038 65.3268 116.869C48.1935 135.535 13.0999 193.063 6.49191 224.001C0.125095 253.803 14.3696 255.332 32.8489 240.183C47.9783 227.782 60.7471 207.188 60.7471 207.188Z" fill="url(#paint7_linear_394_561)"/>
<path d="M58.5151 215.027C59.8644 209.276 61.3416 203.56 62.8373 197.849C64.3305 192.138 65.929 186.456 67.4701 180.758C69.1056 175.086 70.6902 169.401 72.3735 163.742L74.9209 155.261C75.8129 152.445 76.6643 149.619 77.5919 146.815C76.9291 149.693 76.191 152.551 75.4936 155.421L73.2717 163.993C71.7751 169.703 70.181 175.386 68.6369 181.084C66.9987 186.755 65.4173 192.441 63.7322 198.099C62.0484 203.758 60.3458 209.41 58.5151 215.027Z" fill="#17282F"/>
<path d="M74.1328 160.075C74.5695 158.545 75.2376 157.144 75.9539 155.772C76.6887 154.405 77.4974 153.095 78.4535 151.833C78.1469 153.403 77.4681 154.821 76.7565 156.2C76.0112 157.563 75.1954 158.89 74.1328 160.075Z" fill="#17282F"/>
<path d="M7.79091 246.289C16.8425 257.021 36.5655 257.902 91.9301 263.62C99.5908 264.412 121.306 210.817 113.168 209.551C102.918 207.957 62.795 203.991 59.8246 204.072C34.768 204.75 1.65149 239.009 7.79091 246.289Z" fill="url(#paint8_linear_394_561)"/>
<path d="M142.711 194.742C142.711 194.742 136.69 184.014 144.34 180.501C151.989 176.99 156.202 188.551 156.202 188.551L142.711 194.742Z" fill="#33535F"/>
<path d="M192.099 266.733V266.743L191.477 278.767L191.295 282.735L188.132 280.311L178.604 272.934L178.594 272.936L178.593 272.915L142.505 194.295L156 188.104L192.089 266.733H192.099Z" fill="#33535F"/>
<path d="M191.481 278.771L191.291 282.739L188.128 280.31L191.481 278.771Z" fill="#273E47"/>
<path d="M158.37 190.292L142.619 197.523L141.185 194.398L156.937 187.167L158.37 190.292Z" fill="#273E47"/>
<path d="M159.957 193.748L144.206 200.979L142.771 197.853L158.522 190.623L159.957 193.748Z" fill="#273E47"/>
<path d="M144.206 200.978L149.287 198.645L159.543 228.376L157.621 229.128L144.206 200.978Z" fill="#273E47"/>
<path d="M181.562 241.992C179.151 248.614 163.326 241.285 163.326 241.285C163.326 241.285 166.33 245.118 165.831 249.768C165.259 255.094 156.657 256.534 156.657 256.534C156.657 256.534 158.894 261.041 157.873 265.901C156.813 270.945 148.339 273.635 148.339 273.635C148.339 273.635 148.117 278.979 144.221 282.546C137.561 288.644 124.27 284.954 115.798 282.694C107.326 280.436 84.1706 264.121 79.7178 261.81L94.9942 209.279C94.9942 209.279 135.869 208.603 145.452 212.676C153.527 216.106 185.246 231.87 181.562 241.992Z" fill="url(#paint9_linear_394_561)"/>
<path d="M163.259 241.046C155.549 235.34 146.489 231.489 137.706 227.87C137.511 227.789 137.387 228.097 137.584 228.176C146.361 231.675 154.414 237.603 163.033 241.444C163.271 241.55 163.466 241.2 163.259 241.046Z" fill="#17282F"/>
<path d="M156.666 255.775C154.883 254.537 152.697 253.89 150.669 253.17C148.484 252.396 146.288 251.66 144.08 250.956C139.659 249.551 135.205 248.245 130.717 247.071C130.518 247.018 130.389 247.309 130.594 247.376C134.998 248.786 139.38 250.261 143.721 251.854C145.893 252.652 148.058 253.468 150.218 254.299C152.226 255.071 154.282 256.053 156.427 256.363C156.744 256.409 156.934 255.962 156.666 255.775Z" fill="#17282F"/>
<path d="M148.155 273.57C146.648 272.431 144.417 272.041 142.631 271.513C140.604 270.914 138.579 270.304 136.558 269.682C132.518 268.44 128.478 267.196 124.482 265.813C124.283 265.743 124.159 266.047 124.36 266.118C128.412 267.544 132.444 269.024 136.509 270.414C138.504 271.097 140.504 271.768 142.508 272.428C144.212 272.989 146.276 273.884 148.101 273.775L148.155 273.57Z" fill="#17282F"/>
<path d="M106.87 207.622L64.0256 265.021C64.0256 265.021 15.4119 258.107 7.18942 246.391C1.77722 238.679 34.4845 202.654 62.2277 204.01L106.87 207.622Z" fill="url(#paint10_linear_394_561)"/>
<path d="M30.3313 215.61C34.4598 212.008 46.2202 203.416 62.2622 203.965C62.4033 203.97 62.4275 204.195 62.2835 204.204C50.295 204.951 34.724 212.669 30.4546 215.798C30.3427 215.879 30.2281 215.701 30.3313 215.61Z" fill="#17282F"/>
<path d="M50.187 257.316C54.5603 250.752 59.2789 244.429 64.0161 238.118C68.756 231.804 73.484 225.478 78.3813 219.282C81.148 215.781 83.8954 212.262 86.7838 208.858L86.9592 208.975C82.5968 215.529 77.8976 221.879 73.2116 228.21C68.5134 234.556 63.7445 240.859 58.9208 247.112C56.1947 250.644 53.4048 254.13 50.5183 257.536C50.3751 257.704 50.0592 257.508 50.187 257.316Z" fill="#17282F"/>
<path d="M106.893 206.926C103.896 206.226 100.837 205.994 97.7748 205.704C94.7162 205.411 91.6525 205.173 88.5877 204.963C82.4923 204.544 69.6213 202.963 58.5287 203.999C58.4066 204.011 59.0888 204.549 59.2101 204.532C64.4663 203.768 103.009 207.864 106.138 207.801C106.034 208.017 105.935 208.231 105.861 208.465C105.811 208.624 105.982 208.808 106.136 208.684C106.501 208.385 106.749 208.033 107.09 207.712C107.369 207.448 107.281 207.017 106.893 206.926Z" fill="#17282F"/>
<path d="M37.1081 259.901C32.4217 259.116 27.8566 257.78 23.3943 256.167C18.9637 254.503 14.5559 252.556 10.7241 249.72C12.8726 250.734 15.0476 251.624 17.2222 252.517C19.4053 253.39 21.6058 254.217 23.813 255.028C28.2266 256.667 32.678 258.196 37.1081 259.901Z" fill="#17282F"/>
<path d="M108.776 127.179C108.776 127.179 81.4707 109.945 66.9557 113.586L56.9107 127.267C56.9107 127.267 53.1224 129.477 51.3084 127.166C46.822 121.449 42.886 106.139 54.0179 93.2654C64.2117 81.4756 84.2754 77.8809 101.832 78.6947C118.692 79.4745 134.81 87.0946 132.148 98.5533C129.486 110.013 108.776 127.179 108.776 127.179Z" fill="url(#paint11_linear_394_561)"/>
<path d="M109.326 121.942C109.326 121.942 108.986 121.574 108.347 120.925C109.104 120.81 109.81 120.607 110.452 120.31C110.655 120.217 110.849 120.112 111.035 119.999C109.986 121.22 109.326 121.942 109.326 121.942ZM113.609 116.92C116.11 111.227 113.55 101.177 112.36 98.0438C112.324 97.9068 112.271 97.7928 112.24 97.6957C111.964 97.0457 111.742 96.3483 111.572 95.5854C110.918 92.4782 110.6 89.0811 110.466 85.9472C118.265 88.0223 125.195 91.5649 125.051 96.7837C124.904 102.127 118.215 111.251 113.609 116.92ZM79.4379 100.445C74.3734 98.3191 69.0285 96.9292 63.713 96.9292C63.5922 96.9292 63.4699 96.9292 63.3486 96.9317C63.4518 96.6309 63.6016 96.335 63.8005 96.0439C67.4315 90.7172 72.0084 87.2885 77.9233 85.4014C78.1085 86.8895 78.2772 88.357 78.4321 89.7809C78.8575 93.8462 79.1725 97.5757 79.4379 100.445Z" fill="#29246A"/>
<path d="M110.452 120.31C103.097 123.716 87.4235 114.616 80.2309 106.115C79.741 105.531 79.335 98.4103 78.432 89.7811C77.8631 84.5466 77.1069 78.7311 76.0338 73.4748C75.8083 72.3978 110.637 74.7531 110.637 74.7531C110.637 74.7531 109.645 86.4337 111.572 95.5856C111.742 96.3485 111.964 97.0459 112.24 97.696C112.271 97.793 112.324 97.907 112.36 98.044C113.865 102.005 117.558 117.015 110.452 120.31Z" fill="url(#paint12_linear_394_561)"/>
<path d="M78.0894 73.2007C81.4326 81.7741 91.3446 102.114 109.017 98.9221C110.247 98.7013 111.359 98.4115 112.352 98.0501C112.331 97.9009 112.272 97.8014 112.236 97.6971C111.968 97.0398 111.738 96.3533 111.564 95.5953C109.636 86.4264 110.635 74.7458 110.635 74.7458C110.635 74.7458 85.5112 73.0478 78.0894 73.2007Z" fill="#17282F"/>
<path d="M65.5736 32.3811C63.5469 44.6888 74.3605 78.0134 83.7901 84.5056C97.4599 93.9171 117.563 92.3028 124.985 76.3906C132.178 60.9684 117.317 17.7861 106.997 12.121C91.7952 3.77679 68.5683 14.201 65.5736 32.3811Z" fill="url(#paint13_linear_394_561)"/>
<path d="M101.812 48.7766L101.712 49.035C102.584 51.2278 103.214 53.8887 101.472 55.3501L101.536 55.4678C103.861 54.238 102.99 50.7159 101.812 48.7766Z" fill="#17282F"/>
<path d="M98.9919 47.1753C95.3251 48.1916 97.6319 55.454 101.03 54.5092C104.374 53.5814 102.067 46.3215 98.9919 47.1753Z" fill="#17282F"/>
<path d="M114.422 44.8441L114.658 44.986C115.302 47.2576 116.421 49.7524 118.692 49.8518L118.714 49.9828C116.12 50.4231 114.667 47.0975 114.422 44.8441Z" fill="#17282F"/>
<path d="M115.684 41.8557C119.214 40.4331 121.803 47.5972 118.533 48.9155C115.314 50.2144 112.726 43.0491 115.684 41.8557Z" fill="#17282F"/>
<path d="M95.164 45.6717C96.1589 45.2775 97.0107 44.7488 97.9545 44.2564C99.019 43.7021 99.9238 43.3698 100.524 42.271C100.846 41.6815 100.556 40.738 100.013 40.3717C98.748 39.5179 97.2755 39.8732 95.9665 40.4881C94.5472 41.1564 93.6239 42.0345 92.9459 43.4462C92.2878 44.8142 93.8521 46.192 95.164 45.6717Z" fill="#17282F"/>
<path d="M117.331 35.4989C116.273 35.6542 115.271 35.6215 114.208 35.6663C113.008 35.7185 112.059 35.8834 110.99 35.2309C110.416 34.8804 110.196 33.9199 110.484 33.3304C111.152 31.9587 112.606 31.5306 114.046 31.4093C115.61 31.2783 116.849 31.5779 118.141 32.4621C119.394 33.3183 118.728 35.2928 117.331 35.4989Z" fill="#17282F"/>
<path d="M104.697 70.8673C105.403 71.2227 106.171 71.7769 107.008 71.5865C107.811 71.4034 108.618 70.7581 109.246 70.2524L109.38 70.3361C109.071 71.3864 108.014 72.3154 106.913 72.4646C105.838 72.6101 105.055 71.8909 104.513 71.0371C104.437 70.9182 104.594 70.8151 104.697 70.8673Z" fill="#17282F"/>
<path d="M104.92 63.3819C106.8 64.9343 108.99 65.4134 111.115 65.166C112.065 65.0617 113.015 64.7936 113.909 64.4152C114.09 64.3546 114.264 64.277 114.416 64.1884C114.574 64.1157 114.716 64.0514 114.884 63.9568C115.136 63.8343 115.211 63.5723 115.177 63.3091L115.171 63.2934L115.076 63.0702L115.071 63.052L115.004 62.8567C114.502 61.1115 113.496 58.5306 113.496 58.5306C114.23 58.6471 117.916 59.0728 117.579 58.1838C114.751 50.8365 111.608 42.6658 107.244 35.9516C107.111 35.7224 106.751 35.8994 106.851 36.1396C109.288 43.3085 112.97 50.0009 115.533 57.1626C114.379 57.0983 112.47 56.9079 111.57 57.2135C111.346 57.3627 113.601 62.1654 113.764 62.9683L113.775 63.0557C110.984 64.3522 108.512 64.169 105.067 63.1127C104.858 63.0387 104.729 63.2473 104.92 63.3819Z" fill="#17282F"/>
<path d="M112.609 63.8626C112.609 63.8626 111.731 66.4229 109.867 67.8395C109.182 68.3634 108.382 68.7369 107.434 68.7818C105.487 68.8813 104.919 67.2464 104.8 65.7316C104.7 64.4872 104.919 63.3169 104.919 63.3169C104.919 63.3169 108.322 64.9396 112.609 63.8626Z" fill="#17282F"/>
<path d="M109.867 67.8395C109.182 68.3634 108.382 68.7369 107.433 68.7818C105.487 68.8813 104.919 67.2464 104.8 65.7316C106.788 65.318 109.109 66.019 109.867 67.8395Z" fill="#F576B7"/>
<path d="M78.7417 50.5236C80.2046 43.3025 74.7563 32.2246 77.8145 28.6759C84.4357 20.9939 101.398 31.9287 111.92 30.648C122.118 29.406 124.687 22.4178 121.788 14.3841C118.889 6.3504 111.155 1.69437 99.5003 1.44938C87.4436 1.19711 77.2697 7.34489 71.8888 11.8517C71.8888 11.8517 73.933 7.39463 72.8069 6.23397C71.6798 5.07452 67.1966 9.68322 65.8881 11.5692C64.5592 13.4866 64.0224 16.8 64.0224 16.8C64.0224 16.8 62.0928 16.4847 59.3086 16.914C56.7261 17.3118 53.7211 19.7593 53.6135 20.3912C53.5069 21.0243 57.2771 21.023 59.8928 20.8217C59.8928 20.8217 55.8706 27.8803 56.6793 33.3756C57.4884 38.8709 69.411 63.9447 71.5068 63.9628C74.2001 63.9871 78.1475 53.4574 78.7417 50.5236Z" fill="#17282F"/>
<path d="M60.8161 20.0252L60.9611 20.1574C58.7563 22.6158 57.0668 25.3665 56.4481 28.6556C55.728 32.4796 56.4836 36.4092 57.7888 40.0221C60.3281 47.0516 64.7029 53.163 68.6317 59.4491C68.7469 59.6334 68.4388 59.8323 68.312 59.6565C63.7231 53.2661 58.9974 46.2912 56.6091 38.7317C54.5724 32.2856 55.1315 24.5017 60.8161 20.0252Z" fill="#17282F"/>
<path d="M77.0684 26.0546C80.0056 25.2541 83.3712 25.111 86.3895 25.4761C89.3629 25.8351 92.0562 27.3135 94.8153 28.3844C101.005 30.7894 107.667 32.4158 114.304 31.1484L114.328 31.2794C108.31 32.8294 102.099 31.7754 96.3237 29.7658C93.4107 28.7519 90.5747 27.1304 87.5574 26.4754C84.1274 25.7308 80.6035 26.2304 77.1656 26.5991C76.8083 26.6392 76.7254 26.148 77.0684 26.0546Z" fill="#17282F"/>
<path d="M77.7988 8.15298C81.6287 5.53451 85.9148 3.59037 90.3202 2.16046C94.5481 0.789978 98.9781 -0.136606 103.443 0.0162086C111.149 0.281815 118.707 4.20162 121.468 11.7284C122.867 15.5415 123.008 19.9076 121.436 23.694C121.33 23.9499 120.952 23.8093 121.034 23.5461C123.269 16.3614 121 8.2852 114.598 4.01972C107.724 -0.561092 98.9758 0.137468 91.408 2.35935C86.6454 3.75773 82.1873 5.84743 77.8296 8.2003L77.7988 8.15298Z" fill="#17282F"/>
<path d="M96.9662 45.2596C96.2428 45.3978 95.5242 45.6271 94.8278 45.9521C90.3104 48.0648 88.3539 53.4582 90.4649 57.9772C92.5784 62.4937 97.9754 64.4548 102.488 62.3397C107.006 60.2245 108.962 54.8323 106.852 50.3146C105.065 46.4942 100.932 44.5052 96.9662 45.2596ZM100.611 64.4039C96.0354 65.2735 91.2627 62.9788 89.2009 58.5678C86.7625 53.3515 89.0218 47.1273 94.236 44.6883C99.4516 42.2493 105.677 44.5076 108.116 49.7227C110.553 54.9378 108.295 61.1645 103.081 63.6034C102.275 63.9794 101.447 64.2438 100.611 64.4039Z" fill="url(#paint14_linear_394_561)"/>
<path d="M118.754 38.207C118.581 38.2398 118.409 38.2822 118.24 38.3368C116.657 38.8341 115.427 40.1767 114.775 42.116C114.101 44.1329 114.135 46.5342 114.871 48.8774C116.37 53.6341 120.307 56.6528 123.672 55.5892C127.024 54.534 128.534 49.8052 127.038 45.0485C126.3 42.7054 124.952 40.7176 123.242 39.4502C121.775 38.3635 120.202 37.9317 118.754 38.207ZM123.427 57.087C119.503 57.8353 115.177 54.4928 113.541 49.2983C112.715 46.6761 112.684 43.9667 113.454 41.6733C114.247 39.2986 115.799 37.6407 117.82 37.0039C119.847 36.3611 122.062 36.8378 124.074 38.3283C126.019 39.7704 127.545 42.0068 128.368 44.6289C130.096 50.1193 128.178 55.6328 124.091 56.9208C123.87 56.9887 123.651 57.0445 123.427 57.087Z" fill="url(#paint15_linear_394_561)"/>
<path d="M108.144 50.9805L106.967 50.2297C108.078 48.4869 111.034 45.6817 114.284 47.5191L113.598 48.7331C110.688 47.0825 108.248 50.8228 108.144 50.9805Z" fill="url(#paint16_linear_394_561)"/>
<path d="M64.5799 67.5107L63.2046 67.273C63.3179 66.6315 64.3762 60.9664 67.1974 59.5486C69.8368 58.229 88.209 54.2837 88.9888 54.1164L89.2807 55.4808C84.0121 56.6075 69.8604 59.7705 67.8247 60.7954C65.9614 61.7317 64.8523 65.9608 64.5799 67.5107Z" fill="url(#paint17_linear_394_561)"/>
<path d="M76.5995 59.2453C76.5995 59.2453 67.1982 49.4178 62.624 52.9362C58.0486 56.4534 66.3042 71.5275 72.5085 72.8046C78.7133 74.0841 80.01 68.3645 80.01 68.3645L76.5995 59.2453Z" fill="url(#paint18_linear_394_561)"/>
<path d="M65.097 57.1969L65.0903 57.3595C69.4622 58.3916 72.2171 61.8724 74.3438 65.5933C72.8851 64.2604 71.09 63.6831 69.275 65.4538C69.1803 65.5472 69.3086 65.6988 69.4205 65.6563C71.0502 65.0354 72.3108 65.1397 73.6583 66.3149C74.6119 67.1445 75.3491 68.2687 76.0962 69.2827C76.3464 69.621 76.9797 69.3227 76.7746 68.92L76.7259 68.8303C76.0204 63.5679 70.8109 56.8561 65.097 57.1969Z" fill="#17282F"/>
<path d="M109.326 121.942C109.326 121.942 84.6589 95.1957 61.4131 97.0174L66.956 113.584C66.956 113.584 80.4439 110.725 108.776 127.178L109.326 121.942Z" fill="url(#paint19_linear_394_561)"/>
<path d="M60.9307 115.203C64.9571 113.803 69.2636 113.837 73.4075 114.227C77.5803 114.63 81.6614 115.684 85.6257 117.024C89.6133 118.311 93.4488 120.037 97.2384 121.84L102.813 124.791L108.256 127.997L108.866 128.356L109.373 127.943C113.151 124.859 116.668 121.539 119.976 117.987C121.619 116.206 123.239 114.397 124.66 112.427C126.093 110.473 127.453 108.452 128.477 106.261C125.849 110.315 122.485 113.749 119.062 117.086C117.34 118.746 115.541 120.33 113.718 121.878C111.897 123.423 110.059 124.976 108.179 126.415L109.296 126.36L103.818 123.019C101.949 121.976 100.05 120.979 98.1509 119.989C96.1948 119.109 94.2557 118.187 92.2673 117.378C90.2487 116.639 88.2588 115.829 86.1749 115.275C82.0726 113.989 77.7888 113.25 73.491 113.048C72.4188 112.978 71.3363 113.024 70.2637 113.039C69.1907 113.132 68.1166 113.197 67.0564 113.377C64.9387 113.683 62.8187 114.208 60.9307 115.203Z" fill="#17282F"/>
<path d="M56.9106 127.266C58.9113 125.224 60.6618 123 62.3527 120.733C64.0117 118.442 65.6102 116.108 66.9557 113.585C64.9526 115.624 63.2035 117.848 61.5146 120.117C59.8569 122.411 58.2584 124.747 56.9106 127.266Z" fill="#17282F"/>
<path d="M98.2496 116.722C98.2496 116.722 97.4191 125.83 98.7082 138.703C99.2188 143.801 103.39 161.793 108.959 160.448C114.528 159.103 103.896 148.454 101.113 139.036C98.287 129.474 100.043 122.264 99.686 116.464L98.2496 116.722Z" fill="url(#paint20_linear_394_561)"/>
<path d="M108.366 160.52C103.096 160.518 99.2006 143.618 98.7084 138.703C98.1461 133.084 97.9868 128.182 97.9863 124.442C97.9858 119.615 98.2498 116.722 98.2498 116.722L99.6862 116.464C99.7217 117.042 99.7364 117.633 99.7369 118.241C99.7369 119.061 99.7108 119.908 99.6753 120.785C99.645 121.527 99.6076 122.289 99.5729 123.075C99.5175 124.338 99.4697 125.658 99.4697 127.042C99.4702 130.588 99.7881 134.553 101.113 139.036C103.334 146.55 110.55 154.848 110.549 158.579C110.549 159.524 110.085 160.176 108.96 160.448C108.76 160.496 108.562 160.52 108.366 160.52Z" fill="#29246A"/>
<path d="M118.755 113.034C118.755 113.034 122.339 120.514 125.312 131.865C126.489 136.357 128.63 152.97 123.47 153.586C118.312 154.204 123.984 141.792 123.374 132.906C122.754 123.886 118.982 118.311 117.454 113.27L118.755 113.034Z" fill="url(#paint21_linear_394_561)"/>
<path d="M123.117 153.608C121.748 153.608 121.282 152.513 121.283 150.745C121.286 146.969 123.419 140.124 123.42 134.331C123.42 133.848 123.405 133.373 123.374 132.907C122.957 126.844 121.117 122.338 119.491 118.505C119.304 118.062 119.119 117.629 118.939 117.203C118.36 115.828 117.836 114.533 117.454 113.27L118.755 113.035C118.755 113.035 122.339 120.514 125.312 131.865C125.914 134.163 126.769 139.637 126.768 144.515C126.768 149.171 125.989 153.286 123.47 153.587C123.347 153.601 123.228 153.608 123.117 153.608Z" fill="#29246A"/>
<path d="M219.678 254.318L219.679 260.366L354.537 260.341L354.536 254.292L219.678 254.318Z" fill="#33535F"/>
<path d="M219.678 254.318L219.679 260.366L287.555 260.354L287.554 254.306L219.678 254.318Z" fill="#17282F"/>
<path d="M285.98 260.35L417.41 260.326L435.964 171.059L304.533 171.084L285.98 260.35Z" fill="#273E47"/>
<path d="M350.784 217.698C350.277 222.536 353.788 226.458 358.624 226.457C363.462 226.456 367.797 222.533 368.304 217.696C368.811 212.858 365.301 208.937 360.463 208.938C355.625 208.939 351.292 212.86 350.784 217.698Z" fill="white"/>
<defs>
<linearGradient id="paint0_linear_394_561" x1="281.988" y1="321.944" x2="225.797" y2="223.201" gradientUnits="userSpaceOnUse">
<stop offset="0.045703" stop-color="#B93CE8"/>
<stop offset="1" stop-color="#FF9AEA"/>
</linearGradient>
<linearGradient id="paint1_linear_394_561" x1="281.988" y1="320.628" x2="220.232" y2="218.784" gradientUnits="userSpaceOnUse">
<stop offset="0.045703" stop-color="#B93CE8"/>
<stop offset="1" stop-color="#FF9AEA"/>
</linearGradient>
<linearGradient id="paint2_linear_394_561" x1="210.417" y1="249.422" x2="21.3162" y2="116.174" gradientUnits="userSpaceOnUse">
<stop stop-color="#F9A85D"/>
<stop offset="0.821513" stop-color="#FE5C73"/>
</linearGradient>
<linearGradient id="paint3_linear_394_561" x1="297.392" y1="260.595" x2="204.03" y2="155.471" gradientUnits="userSpaceOnUse">
<stop stop-color="#F9A85D"/>
<stop offset="0.821513" stop-color="#FE5C73"/>
</linearGradient>
<linearGradient id="paint4_linear_394_561" x1="227.616" y1="318.376" x2="79.3527" y2="273.19" gradientUnits="userSpaceOnUse">
<stop offset="0.045703" stop-color="#B93CE8"/>
<stop offset="1" stop-color="#FF9AEA"/>
</linearGradient>
<linearGradient id="paint5_linear_394_561" x1="150.822" y1="333.197" x2="-14.869" y2="281.167" gradientUnits="userSpaceOnUse">
<stop offset="0.045703" stop-color="#B93CE8"/>
<stop offset="1" stop-color="#FF9AEA"/>
</linearGradient>
<linearGradient id="paint6_linear_394_561" x1="67.9031" y1="248.631" x2="-69.0871" y2="192.236" gradientUnits="userSpaceOnUse">
<stop stop-color="#F9A85D"/>
<stop offset="0.821513" stop-color="#FE5C73"/>
</linearGradient>
<linearGradient id="paint7_linear_394_561" x1="85.7391" y1="313.864" x2="-13.4353" y2="293.798" gradientUnits="userSpaceOnUse">
<stop offset="0.045703" stop-color="#B93CE8"/>
<stop offset="1" stop-color="#FF9AEA"/>
</linearGradient>
<linearGradient id="paint8_linear_394_561" x1="91.2276" y1="263.629" x2="13.5228" y2="159.386" gradientUnits="userSpaceOnUse">
<stop stop-color="#F9A85D"/>
<stop offset="0.821513" stop-color="#FE5C73"/>
</linearGradient>
<linearGradient id="paint9_linear_394_561" x1="159.393" y1="285.884" x2="55.0538" y2="182.941" gradientUnits="userSpaceOnUse">
<stop stop-color="#F9A85D"/>
<stop offset="0.821513" stop-color="#FE5C73"/>
</linearGradient>
<linearGradient id="paint10_linear_394_561" x1="106.87" y1="292.187" x2="12.1508" y2="235.93" gradientUnits="userSpaceOnUse">
<stop offset="0.045703" stop-color="#B93CE8"/>
<stop offset="1" stop-color="#FF9AEA"/>
</linearGradient>
<linearGradient id="paint11_linear_394_561" x1="132.438" y1="150.307" x2="53.6662" y2="101.161" gradientUnits="userSpaceOnUse">
<stop offset="0.045703" stop-color="#B93CE8"/>
<stop offset="1" stop-color="#FF9AEA"/>
</linearGradient>
<linearGradient id="paint12_linear_394_561" x1="106.17" y1="121.043" x2="48.7903" y2="86.742" gradientUnits="userSpaceOnUse">
<stop stop-color="#F9A85D"/>
<stop offset="0.821513" stop-color="#FE5C73"/>
</linearGradient>
<linearGradient id="paint13_linear_394_561" x1="113.342" y1="90.2978" x2="19.0376" y2="37.3004" gradientUnits="userSpaceOnUse">
<stop stop-color="#F9A85D"/>
<stop offset="0.821513" stop-color="#FE5C73"/>
</linearGradient>
<linearGradient id="paint14_linear_394_561" x1="109.098" y1="73.8777" x2="85.5027" y2="65.3464" gradientUnits="userSpaceOnUse">
<stop offset="0.045703" stop-color="#B93CE8"/>
<stop offset="1" stop-color="#FF9AEA"/>
</linearGradient>
<linearGradient id="paint15_linear_394_561" x1="129.004" y1="66.2992" x2="109.965" y2="60.8817" gradientUnits="userSpaceOnUse">
<stop offset="0.045703" stop-color="#B93CE8"/>
<stop offset="1" stop-color="#FF9AEA"/>
</linearGradient>
<linearGradient id="paint16_linear_394_561" x1="114.284" y1="52.788" x2="107.72" y2="48.5118" gradientUnits="userSpaceOnUse">
<stop offset="0.045703" stop-color="#B93CE8"/>
<stop offset="1" stop-color="#FF9AEA"/>
</linearGradient>
<linearGradient id="paint17_linear_394_561" x1="89.2807" y1="73.4712" x2="67.0008" y2="57.7871" gradientUnits="userSpaceOnUse">
<stop offset="0.045703" stop-color="#B93CE8"/>
<stop offset="1" stop-color="#FF9AEA"/>
</linearGradient>
<linearGradient id="paint18_linear_394_561" x1="75.8946" y1="72.9912" x2="49.7534" y2="55.5943" gradientUnits="userSpaceOnUse">
<stop stop-color="#F9A85D"/>
<stop offset="0.821513" stop-color="#FE5C73"/>
</linearGradient>
<linearGradient id="paint19_linear_394_561" x1="109.326" y1="140.639" x2="63.2248" y2="114.234" gradientUnits="userSpaceOnUse">
<stop offset="0.045703" stop-color="#B93CE8"/>
<stop offset="1" stop-color="#FF9AEA"/>
</linearGradient>
<linearGradient id="paint20_linear_394_561" x1="110.549" y1="180.124" x2="94.6649" y2="178.486" gradientUnits="userSpaceOnUse">
<stop offset="0.045703" stop-color="#B93CE8"/>
<stop offset="1" stop-color="#FF9AEA"/>
</linearGradient>
<linearGradient id="paint21_linear_394_561" x1="126.769" y1="171.664" x2="114.947" y2="170.682" gradientUnits="userSpaceOnUse">
<stop offset="0.045703" stop-color="#B93CE8"/>
<stop offset="1" stop-color="#FF9AEA"/>
</linearGradient>
</defs>
</svg>
