<svg width="32" height="32" viewBox="0 0 32 32" fill="none" xmlns="http://www.w3.org/2000/svg">
<circle cx="16" cy="16" r="16" fill="#EFF6FF"/>
<path d="M26.1355 7.20064C25.9398 7.05663 25.7106 6.96046 25.4676 6.92067C25.1946 6.87597 24.914 6.90408 24.6562 7.00206C24.6561 7.00208 24.6561 7.0021 24.656 7.00211L5.8687 14.1134C5.56255 14.2292 5.30286 14.4378 5.12902 14.7085C4.95514 14.9793 4.87672 15.2975 4.906 15.6155C4.93527 15.9333 5.07056 16.233 5.2909 16.4698C5.51117 16.7064 5.80455 16.8675 6.12685 16.9296L10.9815 17.865V23.686L26.1355 7.20064ZM26.1355 7.20064L26.1373 7.19884L26.2064 7.25599C26.4172 7.43039 26.5749 7.65741 26.6619 7.91271C26.7489 8.168 26.7618 8.44148 26.6991 8.70341L26.1355 7.20064ZM13.5839 24.729L16.2947 22.1171L20.3772 25.5787C20.3773 25.5787 20.3773 25.5788 20.3774 25.5788L20.3775 25.5789L20.4422 25.5027L13.5839 24.729ZM6.3806 15.3979L6.38065 15.398L6.38608 15.396L21.3503 9.7318L11.5282 16.5664L6.40422 15.579L6.40425 15.5788L6.39846 15.5781C6.37672 15.5752 6.35744 15.565 6.34377 15.5503C6.33017 15.5357 6.32291 15.5176 6.32237 15.4993L6.22242 15.5022L6.32124 15.4869C6.31842 15.4688 6.32229 15.45 6.33272 15.4337C6.34322 15.4174 6.35995 15.4043 6.3806 15.3979ZM21.4849 24.4925L21.4848 24.4925C21.4811 24.5082 21.4732 24.523 21.4613 24.5355C21.4495 24.548 21.4341 24.5576 21.4165 24.5631C21.3989 24.5686 21.3801 24.5696 21.3619 24.5659C21.3437 24.5623 21.3272 24.5542 21.3138 24.5429L12.8341 17.3533L25.2354 8.72385L21.4849 24.4925ZM12.5813 23.7529C12.567 23.7666 12.5484 23.7764 12.5276 23.7804C12.5068 23.7844 12.4852 23.7823 12.4658 23.7745C12.4465 23.7668 12.4305 23.754 12.4196 23.7382C12.4087 23.7225 12.4031 23.7044 12.4031 23.6862V18.8177L15.2225 21.2082L12.5813 23.7529Z" fill="url(#paint0_linear_3230_1615)" stroke="url(#paint1_linear_3230_1615)" stroke-width="0.2"/>
<defs>
<linearGradient id="paint0_linear_3230_1615" x1="27.2595" y1="4.32299" x2="-3.28654" y2="11.3564" gradientUnits="userSpaceOnUse">
<stop stop-color="#934DFF"/>
</linearGradient>
<linearGradient id="paint1_linear_3230_1615" x1="27.2595" y1="4.32299" x2="-3.28654" y2="11.3564" gradientUnits="userSpaceOnUse">
<stop stop-color="#934DFF"/>
</linearGradient>
</defs>
</svg>
